<?xml version="1.0" standalone="no"?>
<!DOCTYPE svg PUBLIC "-//W3C//DTD SVG 1.1//EN" "http://www.w3.org/Graphics/SVG/1.1/DTD/svg11.dtd" >
<svg xmlns="http://www.w3.org/2000/svg" xmlns:xlink="http://www.w3.org/1999/xlink" version="1.1">
<metadata></metadata>
<defs>
<font id="thomas_headline_ceblack" horiz-adv-x="1191" >
<font-face units-per-em="2048" ascent="1536" descent="-512" />
<missing-glyph horiz-adv-x="368" />
<glyph horiz-adv-x="0" />
<glyph horiz-adv-x="0" />
<glyph horiz-adv-x="682" />
<glyph unicode="&#xd;" horiz-adv-x="368" />
<glyph unicode=" "  horiz-adv-x="368" />
<glyph unicode="&#x09;" horiz-adv-x="368" />
<glyph unicode="&#xa0;" horiz-adv-x="368" />
<glyph unicode="!" horiz-adv-x="616" d="M104 176q0 85 59 144t144 59t144 -59t59 -144t-59 -144t-144 -59t-144 59t-59 144zM135 1411h346l-22 -936h-301z" />
<glyph unicode="&#x22;" horiz-adv-x="737" d="M18 1411h283l-45 -592h-190zM393 1411h283l-45 -592h-191z" />
<glyph unicode="#" horiz-adv-x="1435" d="M61 354l43 221h230l53 256h-225l43 222h229l76 358h246l-76 -358h207l76 358h245l-75 -358h233l-41 -222h-240l-53 -256h234l-41 -221h-240l-74 -354h-243l73 354h-209l-73 -354h-244l74 354h-228zM580 575h206l54 256h-207z" />
<glyph unicode="$" horiz-adv-x="1128" d="M61 414h340q3 -57 45.5 -96t122.5 -39q72 0 112 34.5t40 96.5q0 44 -28 68t-107 52q-91 32 -191 70q-165 67 -235 163.5t-70 235.5q0 180 99.5 294t271.5 139v215h198v-220q162 -30 261 -139.5t102 -283.5h-330q-2 58 -36.5 95.5t-96.5 37.5q-55 0 -95 -30t-40 -87 q0 -45 31 -74t108 -59q30 -12 91.5 -33.5t74.5 -26.5q52 -19 93 -39t87.5 -55.5t77.5 -78t51.5 -106t20.5 -140.5q0 -186 -110 -294.5t-290 -129.5v-226h-198v228q-183 28 -291 143t-109 285z" />
<glyph unicode="%" horiz-adv-x="1521" d="M53 1114q0 128 89.5 217.5t217.5 89.5t218 -90t90 -217t-90 -217t-218 -90t-217.5 89.5t-89.5 217.5zM231 1112q0 -56 36.5 -92.5t92.5 -36.5t94 37t38 92t-38 93t-94 38q-55 0 -92 -37.5t-37 -93.5zM287 0l764 1411h186l-756 -1411h-194zM854 295q0 127 90 217t217 90 t217 -90t90 -217t-90 -217t-217 -90t-217 90t-90 217zM1032 293q0 -55 37 -92t92 -37q56 0 93.5 37t37.5 92t-38 93t-93 38t-92 -37.5t-37 -93.5z" />
<glyph unicode="&#x26;" horiz-adv-x="1335" d="M63 397q0 69 19 126t58 104.5t85.5 85.5t114.5 80q-76 90 -111.5 155t-35.5 144q0 99 56 176.5t145 117t194 39.5q160 0 268.5 -93.5t108.5 -246.5q0 -102 -53.5 -179.5t-163.5 -151.5l194 -207l168 172l190 -184l-176 -179l199 -209l-195 -174l-198 207l-49 -45 q-97 -89 -189 -125.5t-190 -36.5q-200 0 -319.5 122.5t-119.5 301.5zM360 410q0 -62 48 -110t114 -48q44 0 94.5 20.5t85.5 53.5l48 45l-222 233q-91 -57 -129.5 -100.5t-38.5 -93.5zM473 1081q0 -36 21.5 -68t68.5 -79q6 4 28 18t29 19.5t24 18t23 20.5t15.5 21t12.5 26 t3 28q0 47 -34.5 75t-81.5 28q-50 0 -79.5 -32t-29.5 -75z" />
<glyph unicode="'" horiz-adv-x="352" d="M20 1411h283l-45 -592h-190z" />
<glyph unicode="(" horiz-adv-x="997" d="M217 530q0 222 53.5 411.5t162 333t261.5 214.5l88 -146q-80 -49 -149.5 -177t-110.5 -298.5t-41 -337.5q0 -252 90 -496t211 -319l-88 -145q-229 105 -353 364.5t-124 595.5z" />
<glyph unicode=")" horiz-adv-x="591" d="M16 -285q121 75 211 319t90 496q0 167 -41 337.5t-110.5 298.5t-149.5 177l88 146q153 -71 262 -214.5t162.5 -333t53.5 -411.5q0 -336 -124.5 -595.5t-353.5 -364.5z" />
<glyph unicode="*" horiz-adv-x="811" d="M55 1167l60 191l239 -115l-30 262h198l-33 -262l240 115l59 -191l-262 -51l183 -192l-164 -115l-123 223l-123 -223l-164 115l182 192z" />
<glyph unicode="+" horiz-adv-x="1101" d="M94 514v229h342v344h230v-344h340v-229h-340v-344h-230v344h-342z" />
<glyph unicode="," horiz-adv-x="534" d="M-31 -223q127 243 187 542h286q-38 -162 -115 -300.5t-184 -282.5z" />
<glyph unicode="-" horiz-adv-x="712" d="M41 358v279h631v-279h-631z" />
<glyph unicode="." horiz-adv-x="569" d="M82 176q0 85 59 144t144 59t143.5 -59t58.5 -144t-58.5 -144t-143.5 -59t-144 59t-59 144z" />
<glyph unicode="/" d="M135 -162l752 1643h250l-750 -1643h-252z" />
<glyph unicode="0" d="M61 702q0 220 58 383.5t179 258t294 94.5t294 -94.5t178.5 -258t57.5 -383.5t-58 -382t-178.5 -254.5t-293.5 -92.5t-294 92.5t-179 254.5t-58 382zM395 702q0 -193 51.5 -311.5t145.5 -118.5t145 118t51 312q0 126 -21.5 223.5t-66.5 155.5t-108 58t-108 -58t-67 -155.5 t-22 -223.5z" />
<glyph unicode="1" horiz-adv-x="679" d="M61 989v303l549 144v-1436h-336v1042z" />
<glyph unicode="2" horiz-adv-x="1118" d="M61 0v154l527 587q119 132 119 240q0 63 -40 110.5t-110 47.5q-45 0 -79 -21t-53 -55t-29 -66.5t-13 -66.5h-313q18 228 149.5 368t345.5 140q205 0 340 -126t135 -323q0 -237 -213 -465l-204 -219h426v-305h-988z" />
<glyph unicode="3" horiz-adv-x="1136" d="M61 356l285 80q11 -71 62.5 -117.5t136.5 -46.5q88 0 138 49.5t50 120.5q0 73 -52.5 122.5t-137.5 49.5h-97v246h76q66 0 106 42t40 97q0 21 -6.5 43t-20 45t-40.5 37.5t-62 14.5q-103 0 -158 -115l-268 72q50 167 168 254.5t282 87.5q192 0 315 -110.5t123 -280.5 q0 -189 -163 -285q111 -42 170 -135t59 -213q0 -132 -71 -234t-186 -154.5t-251 -52.5q-124 0 -229.5 43.5t-178.5 132t-90 207.5z" />
<glyph unicode="4" horiz-adv-x="1255" d="M61 309v170l570 932h399v-821h156v-281h-156v-309h-336v309h-633zM436 590h258v422z" />
<glyph unicode="5" horiz-adv-x="1175" d="M61 184l193 217q58 -60 131 -94.5t145 -34.5q105 0 173.5 67.5t68.5 160.5q0 88 -64 140t-165 52q-97 0 -185 -61h-215l133 780h730v-305h-496l-37 -180q89 43 170 43q198 0 330.5 -133.5t132.5 -346.5q0 -228 -154 -372t-399 -144q-284 0 -492 211z" />
<glyph unicode="6" horiz-adv-x="1187" d="M61 678q0 124 16 229t57 205.5t105.5 170.5t168.5 112.5t239 42.5q345 0 453 -273l-264 -118q-45 92 -162 92q-74 0 -128 -31t-81 -82t-39 -102.5t-12 -106.5q108 111 268 111q83 0 160 -30t139 -86t99.5 -145t37.5 -198q0 -222 -144.5 -359t-391.5 -137 q-122 0 -214.5 38t-150 101t-93.5 155.5t-49.5 191.5t-13.5 219zM403 457q0 -77 54 -132t137 -55q82 0 136 54.5t54 132.5q0 80 -53.5 138t-134.5 58q-82 0 -137.5 -57.5t-55.5 -138.5z" />
<glyph unicode="7" horiz-adv-x="1134" d="M61 0l570 1100h-565v311h999v-203l-616 -1208h-388z" />
<glyph unicode="8" horiz-adv-x="1150" d="M61 408q0 123 64 218.5t178 139.5q-82 38 -125 112t-43 171q0 171 123 280t313 109t313.5 -109t123.5 -280q0 -97 -43 -171t-125 -112q114 -44 177.5 -139.5t63.5 -218.5q0 -191 -146 -313t-364 -122t-364 122t-146 313zM395 444q0 -75 50 -124.5t126 -49.5t126.5 49.5 t50.5 124.5t-51.5 127t-125.5 52t-125 -52t-51 -127zM432 1036q0 -57 40 -98t99 -41t99.5 41.5t40.5 97.5q0 57 -40 99.5t-100 42.5t-99.5 -42.5t-39.5 -99.5z" />
<glyph unicode="9" horiz-adv-x="1187" d="M61 942q0 221 145 358.5t392 137.5q122 0 214.5 -38t149.5 -101t93 -156t49.5 -191.5t13.5 -218.5q0 -124 -16 -229t-57 -205.5t-105.5 -170.5t-168.5 -112.5t-239 -42.5q-344 0 -452 273l264 119q45 -93 162 -93q74 0 128 33t81 87t39 109t12 113q-104 -110 -268 -110 q-83 0 -160 28.5t-139.5 82t-100 138.5t-37.5 189zM395 954q0 -80 54 -138t135 -58q82 0 137 57.5t55 138.5q0 77 -53.5 132t-136.5 55q-82 0 -136.5 -54.5t-54.5 -132.5z" />
<glyph unicode=":" horiz-adv-x="595" d="M94 176q0 85 59 144t144 59t144 -59t59 -144t-59 -144t-144 -59t-144 59t-59 144zM94 733q0 85 59 144t144 59t144 -59t59 -144t-59 -144t-144 -59t-144 59t-59 144z" />
<glyph unicode=";" horiz-adv-x="573" d="M-18 -223q126 240 186 542h287q-38 -162 -115 -300.5t-184 -282.5zM109 733q0 85 58.5 144t143.5 59t144 -59t59 -144t-59 -144t-144 -59t-143.5 59t-58.5 144z" />
<glyph unicode="&#x3c;" horiz-adv-x="1132" d="M59 526v267l981 417v-229l-755 -322l755 -321v-229z" />
<glyph unicode="=" horiz-adv-x="1142" d="M115 326v229h911v-229h-911zM115 705v229h911v-229h-911z" />
<glyph unicode="&#x3e;" horiz-adv-x="1132" d="M90 109v229l756 321l-756 322v229l981 -417v-267z" />
<glyph unicode="?" horiz-adv-x="1026" d="M55 1001q0 199 129.5 318t331.5 119q201 0 326 -115.5t125 -298.5q0 -99 -40 -170t-118 -139q-10 -9 -44.5 -37.5t-50.5 -44t-39.5 -41t-33.5 -49t-10 -47.5v-21h-299v35q0 135 157 285q17 16 48.5 43.5t47.5 43t35 38.5t27 45.5t8 48.5q0 55 -38.5 90t-100.5 35 q-65 0 -113 -38t-49 -100h-299zM279 176q0 85 58.5 144t143.5 59t144 -59t59 -144t-59 -144t-144 -59t-143.5 59t-58.5 144z" />
<glyph unicode="@" horiz-adv-x="1560" d="M70 385q0 151 57.5 286t155.5 233t235.5 155t290.5 57q141 0 269 -50.5t220 -135t146.5 -199.5t54.5 -239q0 -131 -53 -241.5t-161 -180.5t-251 -70h-225q-162 0 -276.5 112.5t-114.5 274.5t114.5 274.5t276.5 112.5q170 0 266 -114t96 -285v-158q70 39 109 113.5 t39 161.5q0 121 -72 224.5t-189 162.5t-249 59q-114 0 -217.5 -44t-178.5 -118t-119 -176.5t-44 -214.5q0 -152 75 -278.5t203.5 -198.5t280.5 -72h362v-182h-362q-205 0 -374.5 96.5t-267 264.5t-97.5 370zM602 387q0 -87 60.5 -146t146.5 -59h180v193q0 90 -49 153.5 t-131 63.5q-86 0 -146.5 -59t-60.5 -146z" />
<glyph unicode="A" horiz-adv-x="1265" d="M-31 0l488 1411h340l499 -1411h-354l-94 285h-449l-94 -285h-336zM489 551h271l-135 446z" />
<glyph unicode="B" horiz-adv-x="1200" d="M133 0v1411h512q191 0 304.5 -100t113.5 -264q0 -100 -45.5 -176.5t-136.5 -118.5q134 -25 196 -118.5t62 -223.5q0 -180 -113.5 -295t-329.5 -115h-563zM469 291h152q100 0 142 36t42 101q0 71 -44 113.5t-128 42.5h-164v-293zM469 860h98q160 0 160 129q0 57 -32.5 95 t-98.5 38h-127v-262z" />
<glyph unicode="C" horiz-adv-x="1421" d="M66 705q0 200 97.5 368.5t265.5 266.5t368 98q183 0 340.5 -84.5t259.5 -229.5l-275 -190q-55 78 -141 124t-184 46q-164 0 -281 -117.5t-117 -281.5t117 -281t281 -117q99 0 185.5 46t141.5 124l271 -194q-102 -143 -259 -226.5t-339 -83.5q-120 0 -231.5 37 t-201.5 104.5t-157.5 157.5t-104 201.5t-36.5 231.5z" />
<glyph unicode="D" horiz-adv-x="1343" d="M133 0v1411h500q147 0 270 -56t204.5 -151.5t126 -223t44.5 -271.5q0 -197 -79.5 -359t-223.5 -256t-324 -94h-518zM469 305h106q181 0 275 105t94 295t-94.5 295.5t-274.5 105.5h-106v-801z" />
<glyph unicode="E" horiz-adv-x="1015" d="M133 0v1411h809v-307h-473v-242h430v-303h-430v-252h481v-307h-817z" />
<glyph unicode="F" horiz-adv-x="960" d="M133 0v1411h787v-307h-451v-242h350v-303h-350v-559h-336z" />
<glyph unicode="G" horiz-adv-x="1572" d="M66 705q0 200 97.5 368.5t265.5 266.5t368 98q183 0 340.5 -84.5t259.5 -229.5l-275 -190q-55 78 -141 124t-184 46q-164 0 -281 -117.5t-117 -281.5q0 -165 116.5 -281.5t287.5 -116.5q105 0 190 48t123 139h-354v290h745q0 -187 -54.5 -341t-149.5 -256.5t-224 -158 t-278 -55.5q-152 0 -288.5 57.5t-234 155.5t-155 233.5t-57.5 285.5z" />
<glyph unicode="H" horiz-adv-x="1388" d="M133 0v1411h336v-553h451v553h335v-1411h-335v563h-451v-563h-336z" />
<glyph unicode="I" horiz-adv-x="602" d="M133 0v1411h336v-1411h-336z" />
<glyph unicode="J" horiz-adv-x="602" d="M-180 -43q31 -10 100 -10q47 0 80.5 9t66 33.5t49.5 76.5t17 131v1214h336v-1214q0 -123 -28 -220t-76 -160.5t-115.5 -105t-141 -59t-157.5 -17.5q-51 0 -131 13v309z" />
<glyph unicode="K" horiz-adv-x="1226" d="M133 0v1411h336v-477l369 477h397l-535 -672l598 -739h-411l-418 518v-518h-336z" />
<glyph unicode="L" horiz-adv-x="940" d="M133 0v1411h336v-1104h446v-307h-782z" />
<glyph unicode="M" horiz-adv-x="1579" d="M133 0v1411h320l335 -528l336 528h322v-1411h-338v831l-242 -399h-155l-242 399v-831h-336z" />
<glyph unicode="N" horiz-adv-x="1437" d="M133 0v1411h336l500 -813v813h336v-1411h-336l-500 815v-815h-336z" />
<glyph unicode="O" horiz-adv-x="1595" d="M66 705q0 200 97.5 368.5t265.5 266.5t368 98t368.5 -98t266.5 -266.5t98 -368.5q0 -150 -58 -285.5t-156 -233.5t-233.5 -155.5t-285.5 -57.5q-120 0 -231.5 37t-201.5 104.5t-157.5 157.5t-104 201.5t-36.5 231.5zM399 705q0 -164 117 -281t281 -117t281.5 117 t117.5 281t-117.5 281.5t-281.5 117.5t-281 -117.5t-117 -281.5z" />
<glyph unicode="P" horiz-adv-x="1181" d="M133 0v1411h549q219 0 339 -133.5t120 -341.5q0 -96 -27.5 -179t-81 -148t-142 -102.5t-202.5 -37.5h-219v-469h-336zM469 776h133q104 0 154.5 43t50.5 117q0 72 -43 120t-127 48h-168v-328z" />
<glyph unicode="Q" horiz-adv-x="1595" d="M66 705q0 200 97.5 368.5t265.5 266.5t368 98t368.5 -98t266.5 -266.5t98 -368.5q0 -171 -74 -320.5t-203 -251.5l140 -213l-226 -147l-153 233q-112 -33 -219 -33q-149 0 -283.5 57.5t-232.5 155.5t-155.5 233.5t-57.5 285.5zM399 707q0 -168 123 -289 q114 -112 273 -112q12 0 24 1l-110 170l225 148l135 -209q127 117 127 289q0 164 -117.5 281.5t-281.5 117.5t-281 -117t-117 -280z" />
<glyph unicode="R" d="M133 0v1411h533q111 0 199 -35.5t144 -97.5t85.5 -144t29.5 -178q0 -144 -68 -254t-204 -165l340 -537h-383l-299 492h-41v-492h-336zM469 799h117q104 0 154.5 41.5t50.5 111.5q0 65 -43 108.5t-127 43.5h-152v-305z" />
<glyph unicode="S" horiz-adv-x="1095" d="M37 414h340q3 -57 45.5 -96t122.5 -39q72 0 111.5 34.5t39.5 96.5q0 44 -28 68t-107 52q-128 45 -190 70q-165 67 -235 163.5t-70 235.5q0 203 124 321t332 118q205 0 338.5 -115t136.5 -319h-329q-2 58 -36.5 95.5t-96.5 37.5q-55 0 -95.5 -30t-40.5 -87q0 -48 31 -74.5 t109 -58.5q8 -3 33.5 -12.5t65.5 -23.5t67 -24q52 -20 90 -38.5t86.5 -54t79 -77t52 -105.5t21.5 -142q0 -141 -66 -240.5t-174 -146t-247 -46.5q-228 0 -367.5 120.5t-142.5 316.5z" />
<glyph unicode="T" horiz-adv-x="991" d="M16 1104v307h959v-307h-311v-1104h-336v1104h-312z" />
<glyph unicode="U" horiz-adv-x="1359" d="M127 557v854h336v-745q0 -186 46.5 -272.5t172.5 -86.5q123 0 169 85t46 274v745h336v-854q0 -138 -43 -249t-119 -183.5t-178.5 -111t-222.5 -38.5q-92 0 -173.5 22.5t-149.5 70t-117 115.5t-76 163.5t-27 210.5z" />
<glyph unicode="V" horiz-adv-x="1157" d="M-43 1411h356l265 -926l266 926h356l-479 -1411h-285z" />
<glyph unicode="W" horiz-adv-x="1773" d="M-43 1411h356l224 -868l219 760h262l217 -760l225 868h357l-420 -1411h-299l-211 750l-211 -750h-299z" />
<glyph unicode="X" horiz-adv-x="1269" d="M-43 0l479 754l-413 657h403l221 -352l215 352h395l-419 -657l475 -754h-400l-286 451l-275 -451h-395z" />
<glyph unicode="Y" horiz-adv-x="1204" d="M-43 1411h401l244 -407l244 407h401l-477 -758v-653h-336v653z" />
<glyph unicode="Z" horiz-adv-x="1179" d="M37 0v125l612 979h-547v307h1028v-135l-604 -969h576v-307h-1065z" />
<glyph unicode="[" horiz-adv-x="641" d="M80 -420v1901h479v-209h-213v-1483h213v-209h-479z" />
<glyph unicode="\" horiz-adv-x="1120" d="M57 1481h250l752 -1643h-252z" />
<glyph unicode="]" horiz-adv-x="663" d="M92 -211h213v1483h-213v209h479v-1901h-479v209z" />
<glyph unicode="_" horiz-adv-x="1300" d="M47 -86h1192v-225h-1192v225z" />
<glyph unicode="`" horiz-adv-x="1050" d="M299 1413l260 78l227 -342l-184 -57z" />
<glyph unicode="a" d="M57 479q0 138 64.5 255.5t172 185t230.5 67.5q70 0 128 -24t120 -74v67h322v-956h-322v70q-118 -97 -246 -97q-190 0 -329.5 148.5t-139.5 357.5zM373 479q0 -82 58.5 -140t141.5 -58q82 0 140.5 58t58.5 140t-58.5 141.5t-140.5 59.5q-83 0 -141.5 -59.5t-58.5 -141.5z " />
<glyph unicode="b" d="M98 0v1411h322v-522q62 50 120 74t128 24q123 0 230.5 -67.5t172 -185t64.5 -255.5q0 -209 -139.5 -357.5t-329.5 -148.5q-128 0 -246 97v-70h-322zM420 479q0 -82 58 -140t140 -58q83 0 142 58t59 140t-59 141.5t-142 59.5q-81 0 -139.5 -59.5t-58.5 -141.5z" />
<glyph unicode="c" horiz-adv-x="1011" d="M57 479q0 138 69 255t187.5 185t257.5 68q127 0 237.5 -57.5t182.5 -155.5l-241 -199q-25 48 -72.5 76.5t-104.5 28.5q-83 0 -141.5 -59.5t-58.5 -141.5t58 -140t140 -58q53 0 98 26t72 68l250 -191q-70 -98 -179.5 -154.5t-238.5 -56.5q-214 0 -365 148t-151 358z" />
<glyph unicode="d" d="M57 479q0 138 64.5 255.5t172 185t230.5 67.5q70 0 128 -24t120 -74v522h322v-1411h-322v70q-118 -97 -246 -97q-190 0 -329.5 148.5t-139.5 357.5zM373 479q0 -82 58.5 -140t141.5 -58q82 0 140.5 58t58.5 140t-58.5 141.5t-140.5 59.5q-83 0 -141.5 -59.5t-58.5 -141.5 z" />
<glyph unicode="e" horiz-adv-x="1122" d="M57 471q0 141 66.5 260t182.5 187.5t255 68.5q109 0 204.5 -44t160 -116.5t102 -166t37.5 -191.5q0 -37 -6 -78h-678q8 -70 63.5 -108.5t124.5 -38.5q88 0 154 55l299 -106q-54 -74 -135.5 -125.5t-162.5 -73t-161 -21.5q-137 0 -252.5 63t-184.5 178t-69 257zM381 571 h360q-16 75 -69 112.5t-111 37.5q-57 0 -110.5 -36.5t-69.5 -113.5z" />
<glyph unicode="f" horiz-adv-x="690" d="M8 696v260h148q0 115 37.5 204t102 143t145 81t173.5 27h101v-272h-58q-180 0 -180 -150v-33h213v-260h-213v-696h-321v696h-148z" />
<glyph unicode="g" d="M55 477q0 209 139.5 357.5t329.5 148.5q130 0 246 -96v69h322v-866q0 -285 -137 -431t-371 -146q-195 0 -333.5 96t-176.5 246l299 53q20 -44 71.5 -72.5t112.5 -28.5q92 0 152.5 64.5t60.5 196.5q-62 -50 -120 -74.5t-128 -24.5q-123 0 -230.5 67.5t-172 185 t-64.5 255.5zM371 477q0 -82 58.5 -141.5t141.5 -59.5q82 0 140.5 59.5t58.5 141.5t-58.5 140.5t-140.5 58.5q-83 0 -141.5 -58.5t-58.5 -140.5z" />
<glyph unicode="h" horiz-adv-x="1157" d="M98 0v1411h322v-588q87 158 285 158q164 0 260 -108.5t96 -311.5v-561h-322v485q0 94 -41 144.5t-108 50.5t-118.5 -46.5t-51.5 -131.5v-502h-322z" />
<glyph unicode="i" horiz-adv-x="520" d="M76 1253q0 77 54 131t130 54t130 -54t54 -131t-54 -130.5t-130 -53.5t-130 53.5t-54 130.5zM100 0v956h322v-956h-322z" />
<glyph unicode="j" horiz-adv-x="518" d="M-117 -205h31q73 0 128.5 49t55.5 154v958h322v-899q0 -112 -17 -199.5t-50 -145.5t-74.5 -97.5t-96.5 -60t-109 -29t-120 -8.5h-70v278zM74 1253q0 77 54 131t130 54t130 -54t54 -131t-54 -130.5t-130 -53.5t-130 53.5t-54 130.5z" />
<glyph unicode="k" horiz-adv-x="1062" d="M98 0v1411h322v-743l266 288h383l-391 -434l442 -522h-397l-303 367v-367h-322z" />
<glyph unicode="l" horiz-adv-x="641" d="M94 528v883h322v-934q0 -112 44 -157.5t140 -45.5h33v-286h-72q-66 0 -120 8.5t-109 29t-96.5 60t-74.5 97.5t-50 145.5t-17 199.5z" />
<glyph unicode="m" horiz-adv-x="1738" d="M98 0v956h322v-133q82 158 266 158q113 0 193.5 -55.5t117.5 -155.5q116 211 312 211q148 0 242 -110t94 -310v-561h-322v485q0 92 -41 143.5t-102 51.5q-59 0 -103.5 -46.5t-44.5 -131.5v-502h-321v485q0 93 -41 144t-103 51q-60 0 -103.5 -46t-43.5 -132v-502h-322z " />
<glyph unicode="n" horiz-adv-x="1155" d="M98 0v956h322v-133q87 158 285 158q164 0 260 -108.5t96 -311.5v-561h-322v485q0 94 -41 144.5t-108 50.5t-118.5 -46.5t-51.5 -131.5v-502h-322z" />
<glyph unicode="o" horiz-adv-x="1144" d="M57 479q0 138 69 255t188 185t259 68t258.5 -68t187 -185t68.5 -255t-68.5 -254.5t-187 -184t-258.5 -67.5q-214 0 -365 148t-151 358zM373 479q0 -82 58.5 -140t141.5 -58q82 0 140.5 58t58.5 140t-58.5 141.5t-140.5 59.5q-83 0 -141.5 -59.5t-58.5 -141.5z" />
<glyph unicode="p" d="M98 -483v1439h322v-69q116 96 246 96q190 0 329.5 -148.5t139.5 -357.5q0 -138 -64.5 -255.5t-172 -185t-230.5 -67.5q-70 0 -128 24.5t-120 74.5v-551h-322zM420 477q0 -82 58.5 -141.5t139.5 -59.5q83 0 142 59.5t59 141.5t-59 140.5t-142 58.5q-82 0 -140 -58.5 t-58 -140.5z" />
<glyph unicode="q" d="M57 477q0 209 139.5 357.5t329.5 148.5q130 0 246 -96v69h322v-1439h-322v551q-62 -50 -120 -74.5t-128 -24.5q-123 0 -230.5 67.5t-172 185t-64.5 255.5zM373 477q0 -82 58.5 -141.5t141.5 -59.5q82 0 140.5 59.5t58.5 141.5t-58.5 140.5t-140.5 58.5 q-83 0 -141.5 -58.5t-58.5 -140.5z" />
<glyph unicode="r" horiz-adv-x="823" d="M98 0v956h314v-190q77 213 301 213q61 0 110 -12l-69 -316q-61 29 -123 29q-107 0 -159 -71t-52 -242v-367h-322z" />
<glyph unicode="s" horiz-adv-x="911" d="M39 305h287q0 -42 38.5 -66t88.5 -24q42 0 72 18.5t30 49.5q0 24 -19.5 46.5t-56.5 30.5l-121 29q-301 71 -301 287q0 138 110 224.5t290 86.5q74 0 141 -16t125.5 -50.5t93.5 -97t35 -147.5h-283q0 37 -34 58.5t-78 21.5q-39 0 -67 -17.5t-28 -46.5q0 -45 72 -63 l182 -47q248 -65 248 -283q0 -67 -24.5 -122.5t-65.5 -92.5t-96 -62.5t-114 -37t-122 -11.5q-61 0 -117 11t-109 36t-91.5 62.5t-62 94.5t-23.5 128z" />
<glyph unicode="t" horiz-adv-x="704" d="M18 696v260h138v330h321v-330h191v-260h-191v-260q0 -88 38.5 -125t125.5 -37h55v-286h-94q-77 0 -137 9.5t-120 38.5t-99.5 77.5t-64.5 131t-25 193.5v258h-138z" />
<glyph unicode="u" horiz-adv-x="1155" d="M94 387v569h322v-485q0 -94 41 -144.5t108 -50.5t118.5 47t51.5 132v501h322v-956h-322v133q-87 -158 -291 -158q-162 0 -256 101.5t-94 310.5z" />
<glyph unicode="v" horiz-adv-x="1030" d="M-29 956h336l209 -518l207 518h336l-426 -956h-236z" />
<glyph unicode="w" horiz-adv-x="1556" d="M-29 956h336l178 -518l179 500h229l178 -500l178 518h336l-389 -956h-238l-180 547l-180 -547h-238z" />
<glyph unicode="x" horiz-adv-x="1097" d="M-29 0l391 518l-327 438h373l143 -190l143 190h373l-330 -438l389 -518h-372l-203 268l-203 -268h-377z" />
<glyph unicode="y" horiz-adv-x="1034" d="M-29 956h336l215 -487l217 487h324l-512 -1149q-35 -80 -69 -129t-87.5 -88t-131.5 -56t-191 -17h-90l34 288h29q106 0 158.5 33.5t97.5 134.5l70 156z" />
<glyph unicode="z" horiz-adv-x="964" d="M43 0v137l403 543h-368v276h840v-143l-398 -537h402v-276h-879z" />
<glyph unicode="{" horiz-adv-x="724" d="M20 430v213q61 7 88 50t27 132v269q0 196 86.5 295.5t255.5 99.5h166v-217h-96q-91 -3 -121.5 -51t-30.5 -179v-254q0 -70 -22 -121.5t-52.5 -79t-76.5 -50.5q71 -35 111 -93t40 -159v-256q0 -131 30.5 -179t121.5 -51h96v-217h-166q-169 0 -255.5 99.5t-86.5 295.5v271 q0 89 -27 132t-88 50z" />
<glyph unicode="|" horiz-adv-x="464" d="M55 -305v1831h273v-1831h-273z" />
<glyph unicode="}" horiz-adv-x="751" d="M63 -201h97q91 3 121 51t30 179v256q0 70 22 121.5t53 79.5t77 51q-46 23 -77 50.5t-53 79t-22 121.5v254q0 131 -30 179t-121 51h-97v217h166q169 0 255.5 -99.5t86.5 -295.5v-269q0 -89 27 -132t88 -50v-213q-61 -7 -88 -50t-27 -132v-271q0 -196 -86.5 -295.5 t-255.5 -99.5h-166v217z" />
<glyph unicode="&#xa1;" horiz-adv-x="616" d="M104 1208q0 85 59 144t144 59t144 -59t59 -144t-59 -143.5t-144 -58.5t-144 58.5t-59 143.5zM135 -27l23 936h301l22 -936h-346z" />
<glyph unicode="&#xa2;" horiz-adv-x="1064" d="M61 479q0 184 119 324t299 174v248h199v-248q95 -20 177 -73t140 -130l-241 -199q-25 48 -72.5 76.5t-103.5 28.5q-83 0 -142 -59.5t-59 -141.5t58 -140t140 -58q53 0 98 26t72 68l250 -191q-56 -79 -138 -131t-179 -69v-238h-199v238q-180 33 -299 172t-119 323z" />
<glyph unicode="&#xa3;" horiz-adv-x="1222" d="M61 0v305h181v283h-181v266h181v100q0 93 31.5 178.5t91 154.5t155 110t213.5 41q244 0 420 -162l-197 -248q-90 94 -194 94q-91 0 -133.5 -62t-42.5 -149v-57h288v-266h-288v-283h467v-305h-992z" />
<glyph unicode="&#xa4;" horiz-adv-x="1296" d="M61 309l183 183q-74 118 -74 256t74 256l-183 182l146 143l180 -180q121 76 256 76q137 0 258 -76l180 180l146 -143l-183 -182q74 -118 74 -256t-74 -256l183 -183l-144 -145l-182 182q-121 -74 -258 -74q-138 0 -256 74l-182 -182zM420 750q0 -91 65.5 -158.5 t157.5 -67.5q93 0 158 66.5t65 159.5q0 91 -65.5 156t-157.5 65q-91 0 -157 -65t-66 -156z" />
<glyph unicode="&#xa5;" horiz-adv-x="1421" d="M61 1411h402l244 -448l243 448h402l-389 -618h217v-183h-306v-125h306v-182h-306v-303h-335v303h-295v182h295v125h-295v183h207z" />
<glyph unicode="&#xa6;" horiz-adv-x="393" d="M23 -303v725h280v-725h-280zM23 768v758h280v-758h-280z" />
<glyph unicode="&#xa7;" horiz-adv-x="976" d="M27 618q0 43 7.5 80t27.5 81t62.5 88.5t106.5 84.5q-89 65 -119 128.5t-30 133.5q0 159 103 253t288 94q183 0 287.5 -94t113.5 -273h-258q-6 65 -42.5 101t-96.5 36q-59 0 -93 -33.5t-34 -87.5q0 -22 5.5 -40.5t20 -34.5t28 -28t42.5 -27.5t49.5 -25l61.5 -28.5 q75 -34 122.5 -58t94.5 -53t73.5 -55.5t48 -61t30 -74t8.5 -89.5q0 -108 -49 -193.5t-174 -158.5q85 -40 126.5 -113.5t41.5 -157.5q0 -141 -108.5 -242.5t-299.5 -101.5t-293.5 107.5t-111.5 300.5h258q15 -178 143 -178q62 0 102.5 38.5t40.5 102.5q0 27 -9.5 48.5t-21 36 t-44 34t-55 30.5t-77.5 37q-64 30 -106 51t-85.5 46t-69.5 47t-50.5 49t-37 56.5t-20 65t-7.5 78.5zM276 657q0 -40 23.5 -76t63.5 -62.5t83.5 -46.5t92.5 -34q59 13 97 59.5t38 102.5q0 35 -17 66t-42 53.5t-62 43t-68.5 33t-70.5 25.5q-58 -13 -98 -60.5t-40 -103.5z" />
<glyph unicode="&#xa8;" horiz-adv-x="1157" d="M182 1280q0 69 48.5 117.5t117.5 48.5t117.5 -48.5t48.5 -117.5t-48.5 -117.5t-117.5 -48.5t-117.5 48.5t-48.5 117.5zM641 1280q0 69 48.5 117.5t117.5 48.5t117.5 -48.5t48.5 -117.5t-48.5 -117.5t-117.5 -48.5t-117.5 48.5t-48.5 117.5z" />
<glyph unicode="&#xa9;" horiz-adv-x="1595" d="M61 705q0 150 57.5 285.5t155.5 233.5t233.5 156t285.5 58q200 0 368.5 -98t266.5 -266.5t98 -368.5q0 -150 -58 -285.5t-156 -233.5t-233.5 -155.5t-285.5 -57.5t-285.5 57.5t-233.5 155.5t-155.5 233.5t-57.5 285.5zM213 705q0 -157 78 -290.5t211.5 -211.5t290.5 -78 t291 78t212 211.5t78 290.5q0 117 -46.5 225t-124 185.5t-185.5 124t-225 46.5q-157 0 -290.5 -78t-211.5 -212t-78 -291zM397 696q0 169 118.5 287.5t285.5 118.5q100 0 187.5 -46.5t144.5 -125.5l-152 -107q-30 44 -77.5 69.5t-102.5 25.5q-90 0 -154.5 -65.5 t-64.5 -156.5q0 -90 64.5 -154.5t154.5 -64.5q56 0 103 26t77 70l149 -108q-57 -79 -142.5 -124.5t-186.5 -45.5q-168 0 -286 117t-118 284z" />
<glyph unicode="&#xab;" horiz-adv-x="1488" d="M270 479l303 443l215 -66l-260 -377l263 -375l-218 -67zM700 479l304 443l215 -66l-261 -377l263 -375l-217 -67z" />
<glyph unicode="&#xac;" horiz-adv-x="1150" d="M82 389v313h979v-602h-334v289h-645z" />
<glyph unicode="&#xad;" horiz-adv-x="712" d="M41 358v279h631v-279h-631z" />
<glyph unicode="&#xae;" horiz-adv-x="1595" d="M61 705q0 150 57.5 285.5t155.5 233.5t233.5 156t285.5 58q200 0 368.5 -98t266.5 -266.5t98 -368.5q0 -150 -58 -285.5t-156 -233.5t-233.5 -155.5t-285.5 -57.5t-285.5 57.5t-233.5 155.5t-155.5 233.5t-57.5 285.5zM213 705q0 -157 78 -290.5t211.5 -211.5t290.5 -78 t291 78t212 211.5t78 290.5q0 117 -46.5 225t-124 185.5t-185.5 124t-225 46.5q-157 0 -290.5 -78t-211.5 -212t-78 -291zM549 307v780h293q120 0 187 -71t67 -180q0 -79 -39 -140.5t-113 -91.5l189 -297h-211l-166 273h-23v-273h-184zM733 750h64q114 0 114 84 q0 35 -24 59.5t-70 24.5h-84v-168z" />
<glyph unicode="&#xaf;" horiz-adv-x="1021" d="M186 1143v192h648v-192h-648z" />
<glyph unicode="&#xb0;" horiz-adv-x="974" d="M199 1139q0 120 84 204t204 84t204.5 -84t84.5 -204t-84.5 -204.5t-204.5 -84.5t-204 84.5t-84 204.5zM356 1139q0 -57 37 -94t94 -37t94 37t37 94t-37 94t-94 37t-94 -37t-37 -94z" />
<glyph unicode="&#xb1;" horiz-adv-x="1142" d="M115 0v229h911v-229h-911zM115 610v230h342v344h229v-344h340v-230h-340v-299h-229v299h-342z" />
<glyph unicode="&#xb2;" horiz-adv-x="686" d="M43 549v92l311 346q70 78 70 141q0 39 -23.5 67t-66.5 28q-50 0 -74.5 -40t-26.5 -85h-186q11 135 89 219t204 84q122 0 201.5 -74.5t79.5 -191.5q0 -145 -125 -277l-121 -127h252v-182h-584z" />
<glyph unicode="&#xb3;" horiz-adv-x="688" d="M35 760l168 47q6 -42 36 -69t80 -27q53 0 83 28.5t30 71.5t-32 72.5t-83 29.5h-55v146h43q39 0 63.5 24.5t24.5 57.5q0 29 -18.5 55.5t-59.5 26.5q-58 0 -94 -68l-158 43q30 99 101 151t168 52q113 0 185.5 -66t72.5 -166q0 -116 -98 -168q67 -26 103 -81.5t36 -126.5 q0 -117 -88.5 -189t-214.5 -72q-112 0 -196 61.5t-97 166.5z" />
<glyph unicode="&#xb4;" horiz-adv-x="776" d="M145 1149l230 342l258 -78l-303 -321z" />
<glyph unicode="&#xb5;" horiz-adv-x="1155" d="M94 -432v1388h322v-485q0 -94 41 -144.5t108 -50.5t118.5 47t51.5 132v501h322v-956h-322v133q-87 -158 -291 -158q-9 0 -49 5l21 -412h-322z" />
<glyph unicode="&#xb6;" horiz-adv-x="1257" d="M43 1038q0 184 122 278.5t363 94.5h686v-203h-133v-1409h-225v1409h-184v-1409h-226v883q-190 0 -296.5 93.5t-106.5 262.5z" />
<glyph unicode="&#xb7;" horiz-adv-x="727" d="M168 586q0 85 59 143.5t144 58.5t143.5 -58.5t58.5 -143.5t-58.5 -144t-143.5 -59t-144 59t-59 144z" />
<glyph unicode="&#xb8;" horiz-adv-x="1130" d="M334 -446l241 372l259 -78l-316 -352z" />
<glyph unicode="&#xb9;" horiz-adv-x="602" d="M109 1135v178l323 86v-850h-196v618z" />
<glyph unicode="&#xbb;" horiz-adv-x="1095" d="M86 104l262 375l-260 377l215 66l303 -443l-303 -442zM516 104l262 375l-260 377l215 66l303 -443l-303 -442z" />
<glyph unicode="&#xbc;" horiz-adv-x="1652" d="M127 1135v178l324 86v-850h-197v618zM272 0l881 1411h188l-878 -1411h-191zM932 184v101l338 551h235v-486h92v-166h-92v-184h-198v184h-375zM1153 350h154v250z" />
<glyph unicode="&#xbd;" horiz-adv-x="1683" d="M127 1135v178l324 86v-850h-197v618zM272 0l881 1411h188l-878 -1411h-191zM1030 0v92l311 346q70 78 70 142q0 38 -23.5 66t-66.5 28q-34 0 -57.5 -22.5t-32.5 -49t-10 -53.5h-187q11 135 89 219t204 84q122 0 201.5 -74.5t79.5 -191.5q0 -145 -125 -277l-121 -127h252 v-182h-584z" />
<glyph unicode="&#xbe;" horiz-adv-x="1783" d="M55 760l168 47q6 -42 36.5 -69t80.5 -27q53 0 83 28.5t30 71.5t-32 72.5t-83 29.5h-55v146h43q39 0 63.5 24.5t24.5 57.5q0 29 -18.5 55.5t-59.5 26.5q-58 0 -94 -68l-158 43q30 99 100.5 151t167.5 52q113 0 185.5 -66t72.5 -166q0 -116 -98 -168q67 -26 103 -81.5 t36 -126.5q0 -117 -88.5 -189t-214.5 -72q-112 0 -196 61.5t-97 166.5zM401 0l881 1411h188l-878 -1411h-191zM1061 184v101l338 551h235v-486h92v-166h-92v-184h-198v184h-375zM1282 350h154v250z" />
<glyph unicode="&#xbf;" horiz-adv-x="1026" d="M55 387q0 99 40 170t118 139q10 9 44.5 37.5t50.5 44t39.5 41t33.5 49t10 47.5v21h299v-35q0 -134 -158 -285q-17 -16 -48.5 -43.5t-47 -43t-34.5 -38.5t-27 -45.5t-8 -48.5q0 -55 38.5 -90t100.5 -35q65 0 113 38t49 100h299q0 -199 -129.5 -318t-331.5 -119 q-201 0 -326 115.5t-125 298.5zM338 1235q0 85 59 144t144 59t143.5 -59t58.5 -144t-58.5 -144t-143.5 -59t-144 59t-59 144z" />
<glyph unicode="&#xc0;" horiz-adv-x="1286" d="M-10 0l487 1411h340l500 -1411h-354l-95 285h-448l-94 -285h-336zM399 1823l260 78l228 -342l-185 -58zM510 551h270l-135 446z" />
<glyph unicode="&#xc1;" horiz-adv-x="1286" d="M-10 0l487 1411h340l500 -1411h-354l-95 285h-448l-94 -285h-336zM399 1559l230 342l258 -78l-303 -322zM510 551h270l-135 446z" />
<glyph unicode="&#xc2;" horiz-adv-x="1286" d="M-10 0l487 1411h340l500 -1411h-354l-95 285h-448l-94 -285h-336zM258 1591l283 305h204l283 -305l-174 -82l-211 195l-211 -195zM510 551h270l-135 446z" />
<glyph unicode="&#xc3;" horiz-adv-x="1286" d="M-10 0l487 1411h340l500 -1411h-354l-95 285h-448l-94 -285h-336zM317 1511q0 141 62 210t158 69q18 0 110.5 -40t108.5 -40q49 0 57 82h156q-22 -279 -207 -279q-43 0 -95 20.5t-90.5 41t-48.5 20.5q-49 0 -57 -84h-154zM510 551h270l-135 446z" />
<glyph unicode="&#xc4;" horiz-adv-x="1286" d="M-10 0l487 1411h340l500 -1411h-354l-95 285h-448l-94 -285h-336zM248 1690q0 69 48.5 117t117.5 48t117.5 -48t48.5 -117t-48.5 -117.5t-117.5 -48.5t-117.5 48.5t-48.5 117.5zM510 551h270l-135 446zM707 1690q0 69 48 117t117 48t117.5 -48t48.5 -117t-48.5 -117.5 t-117.5 -48.5t-117 48.5t-48 117.5z" />
<glyph unicode="&#xc5;" horiz-adv-x="1286" d="M-10 0l487 1411h340l500 -1411h-354l-95 285h-448l-94 -285h-336zM401 1692q0 100 71 170.5t171 70.5t171 -70.5t71 -170.5t-71 -171t-171 -71t-171 71t-71 171zM510 551h270l-135 446zM537 1692q0 -44 31 -75.5t75 -31.5t76.5 31.5t32.5 75.5t-32.5 76t-76.5 32t-75 -32 t-31 -76z" />
<glyph unicode="&#xc6;" horiz-adv-x="1746" d="M-39 0l703 1411h827l53 -307h-473l43 -242h430l53 -303h-430l45 -252h482l53 -307h-817l-51 285h-433l-129 -285h-356zM569 551h265l-80 448z" />
<glyph unicode="&#xc7;" horiz-adv-x="1421" d="M66 705q0 200 97.5 368.5t265.5 266.5t368 98q183 0 340.5 -84.5t259.5 -229.5l-275 -190q-55 78 -141 124t-184 46q-164 0 -281 -117.5t-117 -281.5t117 -281t281 -117q99 0 185.5 46t141.5 124l271 -194q-102 -143 -259 -226.5t-339 -83.5q-120 0 -231.5 37 t-201.5 104.5t-157.5 157.5t-104 201.5t-36.5 231.5zM461 -446l241 372l259 -78l-316 -352z" />
<glyph unicode="&#xc8;" horiz-adv-x="1015" d="M133 0v1411h809v-307h-473v-242h430v-303h-430v-252h481v-307h-817zM285 1823l260 78l227 -342l-184 -58z" />
<glyph unicode="&#xc9;" horiz-adv-x="1015" d="M133 0v1411h809v-307h-473v-242h430v-303h-430v-252h481v-307h-817zM285 1559l229 342l258 -78l-303 -322z" />
<glyph unicode="&#xca;" horiz-adv-x="1015" d="M133 0v1411h809v-307h-473v-242h430v-303h-430v-252h481v-307h-817zM143 1591l283 305h205l282 -305l-174 -82l-211 195l-211 -195z" />
<glyph unicode="&#xcb;" horiz-adv-x="1015" d="M133 0v1411h809v-307h-473v-242h430v-303h-430v-252h481v-307h-817zM133 1690q0 69 48.5 117t117.5 48t117.5 -48t48.5 -117t-48.5 -117.5t-117.5 -48.5t-117.5 48.5t-48.5 117.5zM592 1690q0 69 48.5 117t117.5 48t117.5 -48t48.5 -117t-48.5 -117.5t-117.5 -48.5 t-117.5 48.5t-48.5 117.5z" />
<glyph unicode="&#xcc;" horiz-adv-x="602" d="M57 1823l260 78l228 -342l-185 -58zM133 0v1411h336v-1411h-336z" />
<glyph unicode="&#xcd;" horiz-adv-x="602" d="M57 1559l230 342l258 -78l-303 -322zM133 0v1411h336v-1411h-336z" />
<glyph unicode="&#xce;" horiz-adv-x="602" d="M-84 1591l283 305h204l283 -305l-174 -82l-211 195l-211 -195zM133 0v1411h336v-1411h-336z" />
<glyph unicode="&#xcf;" horiz-adv-x="602" d="M-94 1690q0 69 48.5 117t117.5 48t117.5 -48t48.5 -117t-48.5 -117.5t-117.5 -48.5t-117.5 48.5t-48.5 117.5zM133 0v1411h336v-1411h-336zM365 1690q0 69 48 117t117 48t117.5 -48t48.5 -117t-48.5 -117.5t-117.5 -48.5t-117 48.5t-48 117.5z" />
<glyph unicode="&#xd0;" horiz-adv-x="1349" d="M-8 592v223h147v596h500q196 0 344.5 -96t224.5 -255t76 -355q0 -194 -79.5 -355t-223.5 -255.5t-324 -94.5h-518v592h-147zM475 305h107q180 0 274 105t94 295t-94 295.5t-274 105.5h-107v-291h207v-223h-207v-287z" />
<glyph unicode="&#xd1;" horiz-adv-x="1437" d="M133 0v1411h336l500 -813v813h336v-1411h-336l-500 815v-815h-336zM393 1511q0 141 62 210t157 69q18 0 110.5 -40t108.5 -40q50 0 58 82h155q-22 -279 -206 -279q-43 0 -95 20.5t-90.5 41t-48.5 20.5q-49 0 -57 -84h-154z" />
<glyph unicode="&#xd2;" horiz-adv-x="1595" d="M66 705q0 200 97.5 368.5t265.5 266.5t368 98t368.5 -98t266.5 -266.5t98 -368.5q0 -150 -58 -285.5t-156 -233.5t-233.5 -155.5t-285.5 -57.5q-120 0 -231.5 37t-201.5 104.5t-157.5 157.5t-104 201.5t-36.5 231.5zM399 705q0 -164 117 -281t281 -117t281.5 117 t117.5 281t-117.5 281.5t-281.5 117.5t-281 -117.5t-117 -281.5zM553 1823l260 78l227 -342l-184 -58z" />
<glyph unicode="&#xd3;" horiz-adv-x="1595" d="M66 705q0 200 97.5 368.5t265.5 266.5t368 98t368.5 -98t266.5 -266.5t98 -368.5q0 -150 -58 -285.5t-156 -233.5t-233.5 -155.5t-285.5 -57.5q-120 0 -231.5 37t-201.5 104.5t-157.5 157.5t-104 201.5t-36.5 231.5zM399 705q0 -164 117 -281t281 -117t281.5 117 t117.5 281t-117.5 281.5t-281.5 117.5t-281 -117.5t-117 -281.5zM553 1559l229 342l258 -78l-303 -322z" />
<glyph unicode="&#xd4;" horiz-adv-x="1595" d="M66 705q0 200 97.5 368.5t265.5 266.5t368 98t368.5 -98t266.5 -266.5t98 -368.5q0 -150 -58 -285.5t-156 -233.5t-233.5 -155.5t-285.5 -57.5q-120 0 -231.5 37t-201.5 104.5t-157.5 157.5t-104 201.5t-36.5 231.5zM399 705q0 -164 117 -281t281 -117t281.5 117 t117.5 281t-117.5 281.5t-281.5 117.5t-281 -117.5t-117 -281.5zM412 1591l282 305h205l283 -305l-174 -82l-211 195l-211 -195z" />
<glyph unicode="&#xd5;" horiz-adv-x="1595" d="M66 705q0 200 97.5 368.5t265.5 266.5t368 98t368.5 -98t266.5 -266.5t98 -368.5q0 -150 -58 -285.5t-156 -233.5t-233.5 -155.5t-285.5 -57.5q-120 0 -231.5 37t-201.5 104.5t-157.5 157.5t-104 201.5t-36.5 231.5zM399 705q0 -164 117 -281t281 -117t281.5 117 t117.5 281t-117.5 281.5t-281.5 117.5t-281 -117.5t-117 -281.5zM471 1511q0 141 62 210t157 69q18 0 110.5 -40t108.5 -40q50 0 58 82h155q-22 -279 -207 -279q-43 0 -94.5 20.5t-90 41t-48.5 20.5q-49 0 -57 -84h-154z" />
<glyph unicode="&#xd6;" horiz-adv-x="1595" d="M66 705q0 200 97.5 368.5t265.5 266.5t368 98t368.5 -98t266.5 -266.5t98 -368.5q0 -150 -58 -285.5t-156 -233.5t-233.5 -155.5t-285.5 -57.5q-120 0 -231.5 37t-201.5 104.5t-157.5 157.5t-104 201.5t-36.5 231.5zM399 705q0 -164 117 -281t281 -117t281.5 117 t117.5 281t-117.5 281.5t-281.5 117.5t-281 -117.5t-117 -281.5zM401 1690q0 69 48.5 117t117.5 48t117.5 -48t48.5 -117t-48.5 -117.5t-117.5 -48.5t-117.5 48.5t-48.5 117.5zM860 1690q0 69 48.5 117t117.5 48t117.5 -48t48.5 -117t-48.5 -117.5t-117.5 -48.5t-117.5 48.5 t-48.5 117.5z" />
<glyph unicode="&#xd7;" horiz-adv-x="921" d="M41 377l258 256l-258 258l162 162l258 -256l254 254l164 -162l-256 -256l258 -258l-162 -162l-258 258l-256 -256z" />
<glyph unicode="&#xd8;" horiz-adv-x="1581" d="M35 78l178 176q-154 197 -154 451q0 150 57.5 285.5t155.5 233.5t233.5 156t285.5 58q253 0 456 -162l178 176l121 -123l-178 -176q156 -200 156 -448q0 -150 -58 -285.5t-156 -233.5t-233.5 -155.5t-285.5 -57.5q-255 0 -457 158l-178 -176zM393 705q0 -116 62 -213 l553 546q-101 66 -217 66q-164 0 -281 -117.5t-117 -281.5zM575 371q95 -64 216 -64q164 0 281.5 117t117.5 281q0 113 -62 210z" />
<glyph unicode="&#xd9;" horiz-adv-x="1359" d="M127 557v854h336v-745q0 -186 46.5 -272.5t172.5 -86.5q123 0 169 85t46 274v745h336v-854q0 -138 -43 -249t-119 -183.5t-178.5 -111t-222.5 -38.5q-92 0 -173.5 22.5t-149.5 70t-117 115.5t-76 163.5t-27 210.5zM436 1823l260 78l228 -342l-185 -58z" />
<glyph unicode="&#xda;" horiz-adv-x="1359" d="M127 557v854h336v-745q0 -186 46.5 -272.5t172.5 -86.5q123 0 169 85t46 274v745h336v-854q0 -138 -43 -249t-119 -183.5t-178.5 -111t-222.5 -38.5q-92 0 -173.5 22.5t-149.5 70t-117 115.5t-76 163.5t-27 210.5zM436 1559l230 342l258 -78l-303 -322z" />
<glyph unicode="&#xdb;" horiz-adv-x="1359" d="M127 557v854h336v-745q0 -186 46.5 -272.5t172.5 -86.5q123 0 169 85t46 274v745h336v-854q0 -138 -43 -249t-119 -183.5t-178.5 -111t-222.5 -38.5q-92 0 -173.5 22.5t-149.5 70t-117 115.5t-76 163.5t-27 210.5zM295 1591l283 305h204l283 -305l-174 -82l-211 195 l-211 -195z" />
<glyph unicode="&#xdc;" horiz-adv-x="1359" d="M127 557v854h336v-745q0 -186 46.5 -272.5t172.5 -86.5q123 0 169 85t46 274v745h336v-854q0 -138 -43 -249t-119 -183.5t-178.5 -111t-222.5 -38.5q-92 0 -173.5 22.5t-149.5 70t-117 115.5t-76 163.5t-27 210.5zM285 1690q0 69 48.5 117t117.5 48t117 -48t48 -117 t-48 -117.5t-117 -48.5t-117.5 48.5t-48.5 117.5zM743 1690q0 69 48.5 117t117.5 48t117.5 -48t48.5 -117t-48.5 -117.5t-117.5 -48.5t-117.5 48.5t-48.5 117.5z" />
<glyph unicode="&#xdd;" horiz-adv-x="1204" d="M-43 1411h401l244 -407l244 407h401l-477 -758v-653h-336v653zM358 1559l230 342l258 -78l-303 -322z" />
<glyph unicode="&#xde;" horiz-adv-x="1198" d="M133 0v1411h336v-213h213q219 0 339 -133.5t120 -341.5q0 -96 -27.5 -179t-81 -148t-142 -102.5t-202.5 -37.5h-219v-256h-336zM469 563h133q104 0 154.5 43t50.5 117q0 72 -43 120t-127 48h-168v-328z" />
<glyph unicode="&#xdf;" horiz-adv-x="1163" d="M100 0v922q0 260 109 387t332 127q217 0 337.5 -108t120.5 -275q0 -183 -149 -265q133 -51 195.5 -134.5t62.5 -221.5q0 -204 -126.5 -329.5t-363.5 -125.5q-52 0 -116 11v278q41 -10 88 -10q89 0 139.5 55t50.5 142q0 90 -57.5 141t-169.5 51h-21v260h5q80 0 118.5 36.5 t38.5 88.5q0 50 -35.5 86.5t-105.5 36.5q-74 0 -102.5 -50t-28.5 -175v-928h-322z" />
<glyph unicode="&#xe0;" d="M57 479q0 138 64.5 255.5t172 185t230.5 67.5q70 0 128 -24t120 -74v67h322v-956h-322v70q-118 -97 -246 -97q-190 0 -329.5 148.5t-139.5 357.5zM352 1413l260 78l228 -342l-185 -57zM373 479q0 -82 58.5 -140t141.5 -58q82 0 140.5 58t58.5 140t-58.5 141.5 t-140.5 59.5q-83 0 -141.5 -59.5t-58.5 -141.5z" />
<glyph unicode="&#xe1;" d="M57 479q0 138 64.5 255.5t172 185t230.5 67.5q70 0 128 -24t120 -74v67h322v-956h-322v70q-118 -97 -246 -97q-190 0 -329.5 148.5t-139.5 357.5zM352 1149l230 342l258 -78l-303 -321zM373 479q0 -82 58.5 -140t141.5 -58q82 0 140.5 58t58.5 140t-58.5 141.5 t-140.5 59.5q-83 0 -141.5 -59.5t-58.5 -141.5z" />
<glyph unicode="&#xe2;" d="M57 479q0 138 64.5 255.5t172 185t230.5 67.5q70 0 128 -24t120 -74v67h322v-956h-322v70q-118 -97 -246 -97q-190 0 -329.5 148.5t-139.5 357.5zM211 1182l283 305h204l283 -305l-174 -82l-211 194l-211 -194zM373 479q0 -82 58.5 -140t141.5 -58q82 0 140.5 58 t58.5 140t-58.5 141.5t-140.5 59.5q-83 0 -141.5 -59.5t-58.5 -141.5z" />
<glyph unicode="&#xe3;" d="M57 479q0 138 64.5 255.5t172 185t230.5 67.5q70 0 128 -24t120 -74v67h322v-956h-322v70q-118 -97 -246 -97q-190 0 -329.5 148.5t-139.5 357.5zM270 1102q0 141 62 209.5t157 68.5q18 0 111 -40t109 -40q49 0 57 82h156q-22 -278 -207 -278q-43 0 -95 20.5t-90.5 41 t-48.5 20.5q-49 0 -57 -84h-154zM373 479q0 -82 58.5 -140t141.5 -58q82 0 140.5 58t58.5 140t-58.5 141.5t-140.5 59.5q-83 0 -141.5 -59.5t-58.5 -141.5z" />
<glyph unicode="&#xe4;" d="M57 479q0 138 64.5 255.5t172 185t230.5 67.5q70 0 128 -24t120 -74v67h322v-956h-322v70q-118 -97 -246 -97q-190 0 -329.5 148.5t-139.5 357.5zM201 1280q0 69 48.5 117.5t117.5 48.5t117 -48.5t48 -117.5t-48 -117.5t-117 -48.5t-117.5 48.5t-48.5 117.5zM373 479 q0 -82 58.5 -140t141.5 -58q82 0 140.5 58t58.5 140t-58.5 141.5t-140.5 59.5q-83 0 -141.5 -59.5t-58.5 -141.5zM659 1280q0 69 48.5 117.5t117.5 48.5t117.5 -48.5t48.5 -117.5t-48.5 -117.5t-117.5 -48.5t-117.5 48.5t-48.5 117.5z" />
<glyph unicode="&#xe5;" d="M57 479q0 138 64.5 255.5t172 185t230.5 67.5q70 0 128 -24t120 -74v67h322v-956h-322v70q-118 -97 -246 -97q-190 0 -329.5 148.5t-139.5 357.5zM354 1282q0 100 71 171t171 71t171 -71t71 -171t-71 -171t-171 -71t-171 71t-71 171zM373 479q0 -82 58.5 -140t141.5 -58 q82 0 140.5 58t58.5 140t-58.5 141.5t-140.5 59.5q-83 0 -141.5 -59.5t-58.5 -141.5zM489 1282q0 -44 31.5 -75t75.5 -31q45 0 77 31t32 75t-32.5 76.5t-76.5 32.5t-75.5 -32.5t-31.5 -76.5z" />
<glyph unicode="&#xe6;" horiz-adv-x="1947" d="M119 479q0 138 64.5 255.5t172 185t230.5 67.5q70 0 128 -24t120 -74v67h198v-82q139 113 320 113q107 0 201 -44t158.5 -116.5t102 -165.5t37.5 -190q0 -39 -6 -80h-678q9 -70 64 -108.5t133 -38.5q31 0 71.5 14t73.5 41l299 -106q-83 -112 -208.5 -166t-262.5 -54 q-180 0 -305 101v-74h-198v70q-118 -97 -246 -97q-190 0 -329.5 148.5t-139.5 357.5zM434 479q0 -82 59 -140t142 -58q82 0 140.5 58t58.5 140t-58.5 141.5t-140.5 59.5q-83 0 -142 -59.5t-59 -141.5zM1167 571h361q-16 75 -69 112.5t-109 37.5q-59 0 -113 -36.5t-70 -113.5 z" />
<glyph unicode="&#xe7;" horiz-adv-x="1011" d="M57 479q0 138 69 255t187.5 185t257.5 68q127 0 237.5 -57.5t182.5 -155.5l-241 -199q-25 48 -72.5 76.5t-104.5 28.5q-83 0 -141.5 -59.5t-58.5 -141.5t58 -140t140 -58q53 0 98 26t72 68l250 -191q-70 -98 -179.5 -154.5t-238.5 -56.5q-214 0 -365 148t-151 358z M256 -446l242 372l258 -78l-316 -352z" />
<glyph unicode="&#xe8;" horiz-adv-x="1122" d="M57 471q0 141 66.5 260t182.5 187.5t255 68.5q109 0 204.5 -44t160 -116.5t102 -166t37.5 -191.5q0 -37 -6 -78h-678q8 -70 63.5 -108.5t124.5 -38.5q88 0 154 55l299 -106q-54 -74 -135.5 -125.5t-162.5 -73t-161 -21.5q-137 0 -252.5 63t-184.5 178t-69 257zM317 1413 l261 78l227 -342l-184 -57zM381 571h360q-16 75 -69 112.5t-111 37.5q-57 0 -110.5 -36.5t-69.5 -113.5z" />
<glyph unicode="&#xe9;" horiz-adv-x="1122" d="M57 471q0 141 66.5 260t182.5 187.5t255 68.5q109 0 204.5 -44t160 -116.5t102 -166t37.5 -191.5q0 -37 -6 -78h-678q8 -70 63.5 -108.5t124.5 -38.5q88 0 154 55l299 -106q-54 -74 -135.5 -125.5t-162.5 -73t-161 -21.5q-137 0 -252.5 63t-184.5 178t-69 257zM317 1149 l230 342l258 -78l-303 -321zM381 571h360q-16 75 -69 112.5t-111 37.5q-57 0 -110.5 -36.5t-69.5 -113.5z" />
<glyph unicode="&#xea;" horiz-adv-x="1122" d="M57 471q0 141 66.5 260t182.5 187.5t255 68.5q109 0 204.5 -44t160 -116.5t102 -166t37.5 -191.5q0 -37 -6 -78h-678q8 -70 63.5 -108.5t124.5 -38.5q88 0 154 55l299 -106q-54 -74 -135.5 -125.5t-162.5 -73t-161 -21.5q-137 0 -252.5 63t-184.5 178t-69 257zM176 1182 l283 305h205l282 -305l-174 -82l-211 194l-211 -194zM381 571h360q-16 75 -69 112.5t-111 37.5q-57 0 -110.5 -36.5t-69.5 -113.5z" />
<glyph unicode="&#xeb;" horiz-adv-x="1122" d="M57 471q0 141 66.5 260t182.5 187.5t255 68.5q109 0 204.5 -44t160 -116.5t102 -166t37.5 -191.5q0 -37 -6 -78h-678q8 -70 63.5 -108.5t124.5 -38.5q88 0 154 55l299 -106q-54 -74 -135.5 -125.5t-162.5 -73t-161 -21.5q-137 0 -252.5 63t-184.5 178t-69 257zM166 1280 q0 69 48.5 117.5t117.5 48.5t117.5 -48.5t48.5 -117.5t-48.5 -117.5t-117.5 -48.5t-117.5 48.5t-48.5 117.5zM381 571h360q-16 75 -69 112.5t-111 37.5q-57 0 -110.5 -36.5t-69.5 -113.5zM625 1280q0 69 48.5 117.5t117.5 48.5t117 -48.5t48 -117.5t-48 -117.5t-117 -48.5 t-117.5 48.5t-48.5 117.5z" />
<glyph unicode="&#xec;" horiz-adv-x="520" d="M16 1413l260 78l228 -342l-185 -57zM100 0v956h322v-956h-322z" />
<glyph unicode="&#xed;" horiz-adv-x="520" d="M16 1149l230 342l258 -78l-303 -321zM100 0v956h322v-956h-322z" />
<glyph unicode="&#xee;" horiz-adv-x="520" d="M-125 1182l283 305h204l283 -305l-174 -82l-211 194l-211 -194zM100 0v956h322v-956h-322z" />
<glyph unicode="&#xef;" horiz-adv-x="520" d="M-135 1280q0 69 48.5 117.5t117.5 48.5t117.5 -48.5t48.5 -117.5t-48.5 -117.5t-117.5 -48.5t-117.5 48.5t-48.5 117.5zM100 0v956h322v-956h-322zM324 1280q0 69 48 117.5t117 48.5t117.5 -48.5t48.5 -117.5t-48.5 -117.5t-117.5 -48.5t-117 48.5t-48 117.5z" />
<glyph unicode="&#xf0;" horiz-adv-x="1153" d="M57 473q0 198 128.5 320t340.5 122q34 0 66 -4q-35 60 -109 152l-178 -94l-78 135l150 80q-64 70 -135 137l200 115q110 -93 152 -133l188 102l86 -135l-155 -84q175 -182 279 -368.5t104 -352.5q0 -135 -67 -247t-186.5 -177.5t-267.5 -65.5q-221 0 -369.5 140.5 t-148.5 357.5zM387 477q0 -84 55.5 -140t135.5 -56q79 0 133.5 55.5t54.5 140.5t-54.5 141t-133.5 56t-135 -56t-56 -141z" />
<glyph unicode="&#xf1;" horiz-adv-x="1155" d="M98 0v956h322v-133q87 158 285 158q164 0 260 -108.5t96 -311.5v-561h-322v485q0 94 -41 144.5t-108 50.5t-118.5 -46.5t-51.5 -131.5v-502h-322zM252 1102q0 141 62 209.5t157 68.5q18 0 110.5 -40t108.5 -40q50 0 58 82h155q-22 -278 -207 -278q-43 0 -94.5 20.5 t-90 41t-48.5 20.5q-49 0 -57 -84h-154z" />
<glyph unicode="&#xf2;" horiz-adv-x="1144" d="M57 479q0 138 69 255t188 185t259 68t258.5 -68t187 -185t68.5 -255t-68.5 -254.5t-187 -184t-258.5 -67.5q-214 0 -365 148t-151 358zM328 1413l260 78l227 -342l-184 -57zM373 479q0 -82 58.5 -140t141.5 -58q82 0 140.5 58t58.5 140t-58.5 141.5t-140.5 59.5 q-83 0 -141.5 -59.5t-58.5 -141.5z" />
<glyph unicode="&#xf3;" horiz-adv-x="1144" d="M57 479q0 138 69 255t188 185t259 68t258.5 -68t187 -185t68.5 -255t-68.5 -254.5t-187 -184t-258.5 -67.5q-214 0 -365 148t-151 358zM328 1149l229 342l258 -78l-303 -321zM373 479q0 -82 58.5 -140t141.5 -58q82 0 140.5 58t58.5 140t-58.5 141.5t-140.5 59.5 q-83 0 -141.5 -59.5t-58.5 -141.5z" />
<glyph unicode="&#xf4;" horiz-adv-x="1144" d="M57 479q0 138 69 255t188 185t259 68t258.5 -68t187 -185t68.5 -255t-68.5 -254.5t-187 -184t-258.5 -67.5q-214 0 -365 148t-151 358zM186 1182l283 305h205l282 -305l-174 -82l-211 194l-211 -194zM373 479q0 -82 58.5 -140t141.5 -58q82 0 140.5 58t58.5 140 t-58.5 141.5t-140.5 59.5q-83 0 -141.5 -59.5t-58.5 -141.5z" />
<glyph unicode="&#xf5;" horiz-adv-x="1144" d="M57 479q0 138 69 255t188 185t259 68t258.5 -68t187 -185t68.5 -255t-68.5 -254.5t-187 -184t-258.5 -67.5q-214 0 -365 148t-151 358zM246 1102q0 141 62 209.5t157 68.5q18 0 110.5 -40t108.5 -40q49 0 57 82h156q-22 -278 -207 -278q-43 0 -94.5 20.5t-90 41 t-48.5 20.5q-50 0 -58 -84h-153zM373 479q0 -82 58.5 -140t141.5 -58q82 0 140.5 58t58.5 140t-58.5 141.5t-140.5 59.5q-83 0 -141.5 -59.5t-58.5 -141.5z" />
<glyph unicode="&#xf6;" horiz-adv-x="1144" d="M57 479q0 138 69 255t188 185t259 68t258.5 -68t187 -185t68.5 -255t-68.5 -254.5t-187 -184t-258.5 -67.5q-214 0 -365 148t-151 358zM178 1280q0 69 48.5 117.5t117.5 48.5t117.5 -48.5t48.5 -117.5t-48.5 -117.5t-117.5 -48.5t-117.5 48.5t-48.5 117.5zM373 479 q0 -82 58.5 -140t141.5 -58q82 0 140.5 58t58.5 140t-58.5 141.5t-140.5 59.5q-83 0 -141.5 -59.5t-58.5 -141.5zM637 1280q0 69 48.5 117.5t117.5 48.5t117.5 -48.5t48.5 -117.5t-48.5 -117.5t-117.5 -48.5t-117.5 48.5t-48.5 117.5z" />
<glyph unicode="&#xf7;" horiz-adv-x="1142" d="M115 514v229h911v-229h-911zM403 266q0 68 48.5 117t117.5 49q67 0 116.5 -49t49.5 -117q0 -69 -49 -117.5t-117 -48.5q-69 0 -117.5 48.5t-48.5 117.5zM403 991q0 68 48.5 117t117.5 49q67 0 116.5 -49.5t49.5 -116.5q0 -69 -49 -117.5t-117 -48.5q-69 0 -117.5 48.5 t-48.5 117.5z" />
<glyph unicode="&#xf8;" horiz-adv-x="1155" d="M35 68l125 112q-99 132 -99 299q0 138 69.5 255t188.5 185t259 68q188 0 331 -121l127 117l86 -90l-129 -117q99 -136 99 -297q0 -138 -68.5 -254.5t-187 -184t-258.5 -67.5q-190 0 -332 117l-127 -115zM377 479q0 -43 18 -84l281 258q-49 27 -98 27q-83 0 -142 -59.5 t-59 -141.5zM479 305q44 -24 99 -24q82 0 140 58t58 140q0 43 -18 80z" />
<glyph unicode="&#xf9;" horiz-adv-x="1155" d="M94 387v569h322v-485q0 -94 41 -144.5t108 -50.5t118.5 47t51.5 132v501h322v-956h-322v133q-87 -158 -291 -158q-162 0 -256 101.5t-94 310.5zM334 1413l260 78l227 -342l-184 -57z" />
<glyph unicode="&#xfa;" horiz-adv-x="1155" d="M94 387v569h322v-485q0 -94 41 -144.5t108 -50.5t118.5 47t51.5 132v501h322v-956h-322v133q-87 -158 -291 -158q-162 0 -256 101.5t-94 310.5zM334 1149l229 342l258 -78l-303 -321z" />
<glyph unicode="&#xfb;" horiz-adv-x="1155" d="M94 387v569h322v-485q0 -94 41 -144.5t108 -50.5t118.5 47t51.5 132v501h322v-956h-322v133q-87 -158 -291 -158q-162 0 -256 101.5t-94 310.5zM193 1182l282 305h205l283 -305l-175 -82l-210 194l-211 -194z" />
<glyph unicode="&#xfc;" horiz-adv-x="1155" d="M94 387v569h322v-485q0 -94 41 -144.5t108 -50.5t118.5 47t51.5 132v501h322v-956h-322v133q-87 -158 -291 -158q-162 0 -256 101.5t-94 310.5zM182 1280q0 69 48.5 117.5t117.5 48.5t117.5 -48.5t48.5 -117.5t-48.5 -117.5t-117.5 -48.5t-117.5 48.5t-48.5 117.5z M641 1280q0 69 48.5 117.5t117.5 48.5t117.5 -48.5t48.5 -117.5t-48.5 -117.5t-117.5 -48.5t-117.5 48.5t-48.5 117.5z" />
<glyph unicode="&#xfd;" horiz-adv-x="1034" d="M-29 956h336l215 -487l217 487h324l-512 -1149q-35 -80 -69 -129t-87.5 -88t-131.5 -56t-191 -17h-90l34 288h29q106 0 158.5 33.5t97.5 134.5l70 156zM272 1149l230 342l258 -78l-303 -321z" />
<glyph unicode="&#xfe;" d="M98 -483v1894h322v-524q116 96 246 96q190 0 329.5 -148.5t139.5 -357.5q0 -138 -64.5 -255.5t-172 -185t-230.5 -67.5q-70 0 -128 24.5t-120 74.5v-551h-322zM420 477q0 -82 58.5 -141.5t139.5 -59.5q83 0 142 59.5t59 141.5t-59 140.5t-142 58.5q-82 0 -140 -58.5 t-58 -140.5z" />
<glyph unicode="&#xff;" horiz-adv-x="1034" d="M-29 956h336l215 -487l217 487h324l-512 -1149q-35 -80 -69 -129t-87.5 -88t-131.5 -56t-191 -17h-90l34 288h29q106 0 158.5 33.5t97.5 134.5l70 156zM123 1280q0 69 48.5 117.5t117.5 48.5t117.5 -48.5t48.5 -117.5t-48.5 -117.5t-117.5 -48.5t-117.5 48.5t-48.5 117.5 zM582 1280q0 69 48.5 117.5t117.5 48.5t117 -48.5t48 -117.5t-48 -117.5t-117 -48.5t-117.5 48.5t-48.5 117.5z" />
<glyph unicode="&#x152;" horiz-adv-x="2078" d="M66 705q0 200 97.5 368.5t265.5 266.5t368 98q219 0 399 -119v92h809v-307h-473v-242h430v-303h-430v-252h481v-307h-817v90q-182 -117 -399 -117q-120 0 -231.5 37t-201.5 104.5t-157.5 157.5t-104 201.5t-36.5 231.5zM399 705q0 -164 117 -281t281 -117t281.5 117 t117.5 281q0 168 -118.5 283.5t-280.5 115.5q-164 0 -281 -117.5t-117 -281.5z" />
<glyph unicode="&#x153;" horiz-adv-x="1843" d="M57 479q0 138 69 255t188 185t259 68q102 0 195.5 -38t163.5 -105q69 67 160 105t192 38q143 0 259.5 -74.5t179.5 -193t63 -250.5q0 -37 -6 -78h-678q8 -70 63.5 -108.5t124.5 -38.5q88 0 154 55l299 -106q-83 -113 -210 -166.5t-255 -53.5q-211 0 -352 138 q-148 -138 -353 -138q-214 0 -365 148t-151 358zM373 479q0 -82 58.5 -140t141.5 -58q82 0 140.5 58t58.5 140t-58.5 141.5t-140.5 59.5q-83 0 -141.5 -59.5t-58.5 -141.5zM1102 571h360q-16 75 -69 112.5t-111 37.5q-57 0 -110.5 -36.5t-69.5 -113.5z" />
<glyph unicode="&#x178;" horiz-adv-x="1204" d="M-43 1411h401l244 -407l244 407h401l-477 -758v-653h-336v653zM207 1690q0 69 48.5 117t117.5 48t117.5 -48t48.5 -117t-48.5 -117.5t-117.5 -48.5t-117.5 48.5t-48.5 117.5zM666 1690q0 69 48 117t117 48t117.5 -48t48.5 -117t-48.5 -117.5t-117.5 -48.5t-117 48.5 t-48 117.5z" />
<glyph unicode="&#x2c6;" horiz-adv-x="1058" d="M145 1182l283 305h205l282 -305l-174 -82l-211 194l-211 -194z" />
<glyph unicode="&#x2dc;" horiz-adv-x="966" d="M158 1102q0 141 62 209.5t157 68.5q18 0 110.5 -40t108.5 -40q49 0 57 82h156q-22 -278 -207 -278q-43 0 -94.5 20.5t-90 41t-48.5 20.5q-50 0 -58 -84h-153z" />
<glyph unicode="&#x2000;" horiz-adv-x="966" />
<glyph unicode="&#x2001;" horiz-adv-x="1933" />
<glyph unicode="&#x2002;" horiz-adv-x="966" />
<glyph unicode="&#x2003;" horiz-adv-x="1933" />
<glyph unicode="&#x2004;" horiz-adv-x="644" />
<glyph unicode="&#x2005;" horiz-adv-x="483" />
<glyph unicode="&#x2006;" horiz-adv-x="322" />
<glyph unicode="&#x2007;" horiz-adv-x="322" />
<glyph unicode="&#x2008;" horiz-adv-x="241" />
<glyph unicode="&#x2009;" horiz-adv-x="386" />
<glyph unicode="&#x200a;" horiz-adv-x="107" />
<glyph unicode="&#x2010;" horiz-adv-x="712" d="M41 358v279h631v-279h-631z" />
<glyph unicode="&#x2011;" horiz-adv-x="712" d="M41 358v279h631v-279h-631z" />
<glyph unicode="&#x2012;" horiz-adv-x="712" d="M41 358v279h631v-279h-631z" />
<glyph unicode="&#x2013;" horiz-adv-x="1140" d="M94 356v279h991v-279h-991z" />
<glyph unicode="&#x2014;" horiz-adv-x="1851" d="M174 354v279h1501v-279h-1501z" />
<glyph unicode="&#x2018;" horiz-adv-x="622" d="M98 864q38 162 115.5 301.5t183.5 282.5l174 -41q-125 -239 -186 -543h-287z" />
<glyph unicode="&#x2019;" horiz-adv-x="602" d="M84 868q125 239 186 543h287q-38 -162 -115.5 -301.5t-183.5 -282.5z" />
<glyph unicode="&#x201a;" horiz-adv-x="585" d="M47 -231q126 240 186 542h287q-38 -162 -115 -300.5t-184 -282.5z" />
<glyph unicode="&#x201c;" horiz-adv-x="1011" d="M25 864q38 162 115.5 301.5t183.5 282.5l174 -41q-127 -242 -187 -543h-286zM442 864q38 162 115.5 301.5t183.5 282.5l174 -41q-125 -239 -186 -543h-287z" />
<glyph unicode="&#x201d;" horiz-adv-x="1005" d="M47 868q125 239 186 543h287q-38 -162 -115.5 -301.5t-183.5 -282.5zM467 868q125 239 186 543h287q-38 -162 -115.5 -301.5t-183.5 -282.5z" />
<glyph unicode="&#x201e;" horiz-adv-x="1001" d="M63 -231q127 243 187 542h287q-38 -162 -115 -300.5t-184 -282.5zM481 -231q127 243 187 542h286q-38 -162 -115 -300.5t-184 -282.5z" />
<glyph unicode="&#x2022;" horiz-adv-x="831" d="M106 600q0 128 90.5 218.5t217.5 90.5q128 0 218.5 -90.5t90.5 -218.5q0 -127 -90.5 -217t-218.5 -90t-218 90t-90 217z" />
<glyph unicode="&#x2026;" horiz-adv-x="1785" d="M82 176q0 85 59 144t144 59t143.5 -59t58.5 -144t-58.5 -144t-143.5 -59t-144 59t-59 144zM690 176q0 85 59 144t144 59t144 -59t59 -144t-59 -144t-144 -59t-144 59t-59 144zM1298 176q0 85 59 144t144 59t144 -59t59 -144t-59 -144t-144 -59t-144 59t-59 144z" />
<glyph unicode="&#x202f;" horiz-adv-x="386" />
<glyph unicode="&#x2039;" horiz-adv-x="546" d="M10 479l303 443l215 -66l-260 -377l262 -375l-217 -67z" />
<glyph unicode="&#x203a;" horiz-adv-x="735" d="M106 104l263 375l-260 377l215 66l303 -443l-303 -442z" />
<glyph unicode="&#x205f;" horiz-adv-x="483" />
<glyph unicode="&#x20ac;" horiz-adv-x="1187" d="M61 449v190h113q-2 23 -2 70v26h-111v191h144q70 226 262 369t436 143q103 0 215 -33v-365q-98 64 -215 64q-102 0 -190.5 -48.5t-143.5 -129.5h322v-191h-385v-26q0 -35 6 -70h379v-190h-291q57 -66 135.5 -104t167.5 -38q118 0 215 62v-365q-105 -31 -215 -31 q-233 0 -419 132t-265 344h-158z" />
<glyph unicode="&#x2122;" horiz-adv-x="1490" d="M61 1241v170h537v-170h-176v-610h-184v610h-177zM696 631v780h176l185 -293l186 293h178v-780h-186v461l-133 -220h-86l-133 220v-461h-187z" />
<glyph unicode="&#x25fc;" horiz-adv-x="952" d="M0 0v952h952v-952h-952z" />
<glyph unicode="&#xfb01;" horiz-adv-x="1210" d="M8 696v260h148q0 115 37.5 204t102 143t145 81t173.5 27h101v-272h-58q-180 0 -180 -150v-33h213v-260h-213v-696h-321v696h-148zM766 1253q0 77 54 131t130 54t130.5 -54t54.5 -131q0 -76 -54 -130t-131 -54q-76 0 -130 53.5t-54 130.5zM791 0v956h321v-956h-321z" />
<glyph unicode="&#xfb02;" horiz-adv-x="1343" d="M8 696v260h148q0 115 37.5 204t102 143t145 81t173.5 27h101v-272h-58q-180 0 -180 -150v-33h213v-260h-213v-696h-321v696h-148zM797 528v883h321v-934q0 -112 44.5 -157.5t140.5 -45.5h32v-286h-71q-66 0 -120 8.5t-109 29t-96.5 60t-74.5 97.5t-50 145.5t-17 199.5z " />
</font>
</defs>
</svg>
